<svg width="24" height="24" viewBox="0 0 24 24" fill="none" xmlns="http://www.w3.org/2000/svg">
<path d="M21.5303 2.46967C21.8232 2.76256 21.8232 3.23744 21.5303 3.53033L3.53033 21.5303C3.23744 21.8232 2.76256 21.8232 2.46967 21.5303C2.17678 21.2374 2.17678 20.7626 2.46967 20.4697L20.4697 2.46967C20.7626 2.17678 21.2374 2.17678 21.5303 2.46967Z" fill="black"/>
<path d="M16.7043 5.17446C15.3016 4.42493 13.6994 4 11.9979 4C7.44284 4 3.59907 7.0456 2.39188 11.2116C2.24274 11.7262 2.24274 12.2738 2.39188 12.7884C2.85921 14.4011 3.72165 15.846 4.86751 17.0112L5.92806 15.9507C4.95857 14.9621 4.22863 13.7376 3.83261 12.3709C3.7625 12.129 3.7625 11.871 3.83261 11.6291C4.85899 8.08706 8.1283 5.5 11.9979 5.5C13.2799 5.5 14.4959 5.78391 15.5863 6.29239L16.7043 5.17446Z" fill="black"/>
<path d="M8.41242 17.7089C9.50212 18.2166 10.7172 18.5 11.9979 18.5C15.8676 18.5 19.1369 15.9129 20.1633 12.3709C20.2334 12.129 20.2334 11.871 20.1633 11.6291C19.7675 10.2634 19.0384 9.03966 18.0699 8.05145L19.1305 6.9909C20.2753 8.15577 21.137 9.59982 21.604 11.2116C21.7532 11.7262 21.7532 12.2738 21.604 12.7884C20.3968 16.9544 16.5531 20 11.9979 20C10.2976 20 8.69634 19.5756 7.29436 18.827L8.41242 17.7089Z" fill="black"/>
<path d="M12 8C12.5543 8 13.0822 8.11274 13.5622 8.31653L12.3538 9.52485C12.2382 9.50847 12.1201 9.5 12 9.5C10.6193 9.5 9.5 10.6193 9.5 12C9.5 12.1201 9.50847 12.2382 9.52485 12.3538L8.31653 13.5622C8.11274 13.0822 8 12.5543 8 12C8 9.79086 9.79086 8 12 8Z" fill="black"/>
<path d="M12 14.5C11.8799 14.5 11.7618 14.4915 11.6462 14.4752L10.4379 15.6835C10.9178 15.8873 11.4457 16 12 16C14.2091 16 16 14.2091 16 12C16 11.4457 15.8873 10.9178 15.6835 10.4379L14.4752 11.6462C14.4915 11.7618 14.5 11.8799 14.5 12C14.5 13.3807 13.3807 14.5 12 14.5Z" fill="black"/>
</svg>
